<svg xmlns="http://www.w3.org/2000/svg" version="1.1" xmlns:xlink="http://www.w3.org/1999/xlink" xmlns:svgjs="http://svgjs.dev/svgjs" width="1500" height="731" viewBox="0 0 1500 731"><g transform="matrix(1,0,0,1,-0.9090909090909918,-0.13132653446632503)"><svg viewBox="0 0 396 193" data-background-color="#ffffff" preserveAspectRatio="xMidYMid meet" height="731" width="1500" xmlns="http://www.w3.org/2000/svg" xmlns:xlink="http://www.w3.org/1999/xlink"><g id="tight-bounds" transform="matrix(1,0,0,1,0.2400000000000091,0.03467307955129684)"><svg viewBox="0 0 395.52 192.9306538408974" height="192.9306538408974" width="395.52"><g><svg viewBox="0 0 611.0971872 298.0870243902439" height="192.9306538408974" width="395.52"><g transform="matrix(1,0,0,1,363.89718719999996,25.44351219512197)"><svg viewBox="0 0 247.2 247.2" height="247.2" width="247.2"><g id="textblocktransform"><svg viewBox="0 0 247.2 247.2" height="247.2" width="247.2" id="textblock"><g><svg viewBox="0 0 247.2 247.2" height="247.2" width="247.2"><g transform="matrix(1,0,0,1,0,0)"><svg width="247.2" viewBox="1.5 -1.5 1.5 1.5" height="247.2" data-palette-color="#ffffff"><path d="M2.25 0Q1.95 0 1.73-0.23 1.5-0.45 1.5-0.75L1.5-0.75Q1.5-1.05 1.73-1.28 1.95-1.5 2.25-1.5L2.25-1.5Q2.55-1.5 2.78-1.28 3-1.05 3-0.75L3-0.75Q3-0.45 2.78-0.23 2.55 0 2.25 0L2.25 0Z" opacity="1" transform="matrix(1,0,0,1,0,0)" fill="#ffffff" class="wordmark-text-0" data-fill-palette-color="primary" id="text-0"></path></svg></g></svg></g></svg></g></svg></g><g><svg viewBox="0 0 305.5392 298.0870243902439" height="298.0870243902439" width="305.5392"><g><svg xmlns="http://www.w3.org/2000/svg" xmlns:xlink="http://www.w3.org/1999/xlink" version="1.1" x="0" y="0" viewBox="9 10 82 80" style="enable-background:new 0 0 100 100;" xml:space="preserve" height="298.0870243902439" width="305.5392" class="icon-icon-0" data-fill-palette-color="accent" id="icon-0"><g fill="#000000" data-fill-palette-color="accent"><path d="M81 10c-5.5 0-10 4.5-10 10 0 1.4 0.3 2.6 0.8 3.8L54.5 41.1C53.1 40.4 51.6 40 50 40c-5.5 0-10 4.5-10 10s4.5 10 10 10 10-4.5 10-10c0-2.4-0.9-4.7-2.3-6.4l16.4-16.4c1.8 1.7 4.2 2.8 6.9 2.8 5.5 0 10-4.5 10-10S86.5 10 81 10zM50 56c-3.3 0-6-2.7-6-6s2.7-6 6-6 6 2.7 6 6S53.3 56 50 56zM81 26c-3.3 0-6-2.7-6-6s2.7-6 6-6 6 2.7 6 6S84.3 26 81 26z" fill="#000000" data-fill-palette-color="accent"></path><path d="M50 30c5.5 0 10-4.5 10-10s-4.5-10-10-10-10 4.5-10 10S44.5 30 50 30zM50 14c3.3 0 6 2.7 6 6s-2.7 6-6 6-6-2.7-6-6S46.7 14 50 14z" fill="#000000" data-fill-palette-color="accent"></path><path d="M81 40c-5.5 0-10 4.5-10 10s4.5 10 10 10 10-4.5 10-10S86.5 40 81 40zM81 56c-3.3 0-6-2.7-6-6s2.7-6 6-6 6 2.7 6 6S84.3 56 81 56z" fill="#000000" data-fill-palette-color="accent"></path><path d="M19 70c-5.5 0-10 4.5-10 10s4.5 10 10 10 10-4.5 10-10S24.5 70 19 70zM19 86c-3.3 0-6-2.7-6-6s2.7-6 6-6 6 2.7 6 6S22.3 86 19 86z" fill="#000000" data-fill-palette-color="accent"></path><path d="M81 70c-4.8 0-8.9 3.4-9.8 8H59.8c-0.9-4.6-5-8-9.8-8-3.1 0-5.9 1.4-7.7 3.7L25.8 57.3c1.9-1.8 3.2-4.4 3.2-7.3 0-4.8-3.4-8.9-8-9.8V29.8c4.6-0.9 8-5 8-9.8 0-5.5-4.5-10-10-10S9 14.5 9 20c0 4.8 3.4 8.9 8 9.8v10.4c-4.6 0.9-8 5-8 9.8 0 5.5 4.5 10 10 10 1.2 0 2.3-0.2 3.3-0.6l18 18C40.1 78.3 40 79.1 40 80c0 5.5 4.5 10 10 10 4.8 0 8.9-3.4 9.8-8h11.4c0.9 4.6 5 8 9.8 8 5.5 0 10-4.5 10-10S86.5 70 81 70zM13 20c0-3.3 2.7-6 6-6s6 2.7 6 6-2.7 6-6 6S13 23.3 13 20zM13 50c0-3.3 2.7-6 6-6s6 2.7 6 6-2.7 6-6 6S13 53.3 13 50zM50 86c-3.3 0-6-2.7-6-6s2.7-6 6-6 6 2.7 6 6S53.3 86 50 86zM81 86c-3.3 0-6-2.7-6-6s2.7-6 6-6 6 2.7 6 6S84.3 86 81 86z" fill="#000000" data-fill-palette-color="accent"></path></g></svg></g></svg></g></svg></g><defs></defs></svg><rect width="395.52" height="192.9306538408974" fill="none" stroke="none" visibility="hidden"></rect></g></svg></g></svg>